<?xml version="1.0" standalone="no"?>
<!DOCTYPE svg PUBLIC "-//W3C//DTD SVG 20010904//EN"
 "http://www.w3.org/TR/2001/REC-SVG-20010904/DTD/svg10.dtd">
<svg version="1.0" xmlns="http://www.w3.org/2000/svg"
 width="29.000000pt" height="30.000000pt" viewBox="0 0 29.000000 30.000000"
 preserveAspectRatio="xMidYMid meet">
<metadata>
Created by potrace 1.14, written by Peter Selinger 2001-2017
</metadata>
<g transform="translate(0.000000,30.000000) scale(0.100000,-0.100000)"
fill="#000000" stroke="none">
<path d="M0 150 l0 -150 145 0 145 0 0 150 0 150 -145 0 -145 0 0 -150z m270
45 l0 -85 -38 0 c-32 0 -41 5 -50 25 -6 14 -17 25 -23 25 -7 0 -20 7 -30 16
-11 10 -19 12 -23 5 -4 -6 6 -18 21 -28 50 -31 63 -50 63 -93 l0 -40 -85 0
-85 0 0 85 0 85 40 0 40 0 0 45 0 45 85 0 85 0 0 -85z"/>
</g>
</svg>
